<?xml version="1.0" encoding="UTF-8"?><svg id="Layer_1" xmlns="http://www.w3.org/2000/svg" viewBox="0 0 70 70"><defs><style>.cls-1{fill:#fff;}.cls-2{fill:#121824;}</style></defs><circle class="cls-1" cx="35" cy="35" r="35"/><g><path class="cls-2" d="M22.98,15.28v-.72h6.33v.72h-2.77v8.01h-.8V15.28h-2.77Z"/><path class="cls-2" d="M31.7,23.29V14.56h.8v4h4.95v-4h.8v8.73h-.8v-4.01h-4.95v4.01h-.8Z"/><path class="cls-2" d="M41.16,23.29V14.56h5.06v.72h-4.27v3.29h4v.72h-4v3.29h4.35v.72h-5.15Z"/><path class="cls-2" d="M22.7,30.56v8.73h-.78l-5.16-7.31h-.07v7.31h-.8v-8.73h.77l5.17,7.32h.07v-7.32h.78Z"/><path class="cls-2" d="M26.42,30.56v8.73h-.8v-8.73h.8Z"/><path class="cls-2" d="M35.37,33.29c-.08-.29-.2-.56-.35-.82-.15-.25-.34-.48-.57-.67s-.49-.34-.78-.45c-.29-.11-.62-.16-.98-.16-.57,0-1.08,.15-1.53,.44-.45,.29-.8,.72-1.06,1.28s-.39,1.23-.39,2.01,.13,1.45,.39,2.01,.62,.98,1.08,1.28,.98,.45,1.57,.45c.54,0,1.01-.12,1.42-.36,.41-.24,.73-.58,.96-1.02s.34-.97,.34-1.58l.26,.08h-2.8v-.72h3.32v.72c0,.74-.15,1.39-.45,1.93-.3,.54-.71,.96-1.24,1.26-.53,.3-1.13,.44-1.81,.44-.76,0-1.43-.18-2-.55s-1.01-.89-1.33-1.56c-.32-.67-.47-1.46-.47-2.37,0-.68,.09-1.3,.27-1.85,.18-.55,.44-1.02,.77-1.42,.33-.39,.73-.69,1.19-.9,.46-.21,.96-.31,1.52-.31,.48,0,.91,.08,1.31,.23,.4,.15,.75,.36,1.05,.62s.55,.57,.75,.91c.19,.34,.33,.71,.39,1.09h-.82Z"/><path class="cls-2" d="M38.83,39.29v-8.73h.8v4h4.95v-4h.8v8.73h-.8v-4.01h-4.95v4.01h-.8Z"/><path class="cls-2" d="M47.77,31.28v-.72h6.33v.72h-2.77v8.01h-.8v-8.01h-2.77Z"/><path class="cls-2" d="M28.53,48.74c-.05-.49-.26-.87-.64-1.16-.38-.29-.86-.43-1.44-.43-.41,0-.76,.07-1.07,.21-.31,.14-.55,.33-.72,.58-.17,.25-.26,.52-.26,.84,0,.23,.05,.43,.15,.61,.1,.17,.23,.32,.4,.45,.17,.12,.36,.23,.56,.32s.41,.16,.62,.22l.92,.26c.28,.08,.56,.17,.83,.29,.28,.12,.53,.27,.76,.45s.42,.4,.56,.66,.21,.57,.21,.94c0,.47-.12,.88-.36,1.26s-.59,.67-1.04,.88c-.45,.22-.99,.33-1.62,.33-.59,0-1.11-.1-1.55-.3s-.78-.47-1.03-.82-.39-.75-.42-1.21h.82c.03,.34,.14,.63,.34,.87,.2,.24,.46,.42,.78,.54,.32,.12,.67,.19,1.07,.19,.43,0,.82-.07,1.16-.22,.34-.15,.61-.35,.8-.61,.2-.26,.29-.57,.29-.92,0-.3-.08-.54-.23-.74-.15-.2-.37-.37-.64-.5-.27-.14-.59-.26-.95-.36l-1.04-.31c-.68-.2-1.22-.49-1.59-.85-.38-.36-.57-.82-.57-1.38,0-.47,.13-.88,.38-1.24,.25-.36,.59-.63,1.02-.83,.43-.2,.91-.3,1.45-.3s1.02,.1,1.44,.3c.42,.2,.75,.47,1,.82,.25,.35,.38,.74,.39,1.19h-.77Z"/><path class="cls-2" d="M31.94,55.29v-8.73h.8v4.7h.08l4.26-4.7h1.05l-3.73,4.04,3.71,4.69h-.97l-3.23-4.14-1.16,1.3v2.83h-.8Z"/><path class="cls-2" d="M39.41,46.56h.92l2.59,4.14h.08l2.59-4.14h.92l-3.15,4.95v3.78h-.79v-3.78l-3.15-4.95Z"/></g></svg>